<mxfile host="65bd71144e">
    <diagram id="3qArlXINoDacVDzAPOtf" name="Page-1">
        <mxGraphModel dx="701" dy="438" grid="1" gridSize="10" guides="1" tooltips="1" connect="1" arrows="1" fold="1" page="1" pageScale="1" pageWidth="850" pageHeight="1100" math="0" shadow="0">
            <root>
                <mxCell id="0"/>
                <mxCell id="1" parent="0"/>
                <mxCell id="2" value="&lt;h1&gt;Serverless function&lt;/h1&gt;&lt;p&gt;https://www.npmjs.com/package/dom-to-pdf&lt;/p&gt;&lt;p&gt;https://www.npmjs.com/package/html2canvas&lt;br&gt;&lt;/p&gt;&lt;p&gt;&lt;br&gt;&lt;/p&gt;&lt;p&gt;Senf html2canvas to dom-to-pdf&amp;nbsp; them that will generate a pdf canvas version of invoice&lt;/p&gt;" style="text;html=1;strokeColor=none;fillColor=none;spacing=5;spacingTop=-20;whiteSpace=wrap;overflow=hidden;rounded=0;" vertex="1" parent="1">
                    <mxGeometry x="90" y="90" width="290" height="180" as="geometry"/>
                </mxCell>
                <mxCell id="3" value="&lt;h1&gt;https://blog.risingstack.com/pdf-from-html-node-js-puppeteer/&lt;br&gt;&lt;/h1&gt;" style="text;html=1;strokeColor=none;fillColor=none;spacing=5;spacingTop=-20;whiteSpace=wrap;overflow=hidden;rounded=0;" vertex="1" parent="1">
                    <mxGeometry x="380" y="90" width="290" height="180" as="geometry"/>
                </mxCell>
            </root>
        </mxGraphModel>
    </diagram>
</mxfile>